HIERARCHY
ROOT Hips
{
	OFFSET	0	0	0
	CHANNELS 6  Xposition Yposition Zposition Xrotation Yrotation Zrotation
	JOINT Spine
	{
		OFFSET	0	7.0817	1.42564
		CHANNELS 3  Xrotation Yrotation Zrotation
		JOINT Spine1
		{
			OFFSET	0	12.1578	-2.17103
			CHANNELS 3  Xrotation Yrotation Zrotation
			JOINT Spine2
			{
				OFFSET	0	9.21601	0.987817
				CHANNELS 3  Xrotation Yrotation Zrotation
				JOINT Spine3
				{
					OFFSET	0	11.0288	3.27825
					CHANNELS 3  Xrotation Yrotation Zrotation
					JOINT Spine4
					{
						OFFSET	0	16.3261	-1.67169
						CHANNELS 3  Xrotation Yrotation Zrotation
						JOINT Neck
						{
							OFFSET	0	7.79399	-5.46013
							CHANNELS 3  Xrotation Yrotation Zrotation
							JOINT Head
							{
								OFFSET	0	9.35713	-2.80063
								CHANNELS 3  Xrotation Yrotation Zrotation
								End Site
								{
									OFFSET	0	19.5175	-0.944397
								}
							}
						}
					}
					JOINT LeftShoulder
					{
						OFFSET	-4.68942	19.8432	-9.35713
						CHANNELS 3  Xrotation Yrotation Zrotation
						JOINT LeftArm
						{
							OFFSET	-10.2519	-2.80063	3.59307
							CHANNELS 3  Xrotation Yrotation Zrotation
							JOINT LeftForeArm
							{
								OFFSET	-34.1249	-1.55752	2.4358
								CHANNELS 3  Xrotation Yrotation Zrotation
								JOINT LeftHand
								{
									OFFSET	-28.1809	-1.94746	2.01152
									CHANNELS 3  Xrotation Yrotation Zrotation
									End Site
									{
										OFFSET	-10.2846	-0.710727	0.734058
									}
								}
							}
						}
					}
					JOINT RightShoulder
					{
						OFFSET	4.68942	19.8432	-9.35713
						CHANNELS 3  Xrotation Yrotation Zrotation
						JOINT RightArm
						{
							OFFSET	10.2519	-2.80063	3.59307
							CHANNELS 3  Xrotation Yrotation Zrotation
							JOINT RightForeArm
							{
								OFFSET	34.1249	-1.55752	2.4358
								CHANNELS 3  Xrotation Yrotation Zrotation
								JOINT RightHand
								{
									OFFSET	28.1809	-1.94746	2.01152
									CHANNELS 3  Xrotation Yrotation Zrotation
									End Site
									{
										OFFSET	10.2846	-0.710727	0.734058
									}
								}
							}
						}
					}
				}
			}
		}
	}
	JOINT LeftUpLeg
	{
		OFFSET	-9.64475	-3.54085	-0.712821
		CHANNELS 3  Xrotation Yrotation Zrotation
		JOINT LeftLeg
		{
			OFFSET	-2.14734	-42.0762	-0.657743
			CHANNELS 3  Xrotation Yrotation Zrotation
			JOINT LeftFoot
			{
				OFFSET	-2.09898	-38.6909	3.32741
				CHANNELS 3  Xrotation Yrotation Zrotation
				JOINT LeftToeBase
				{
					OFFSET	0	-4.81787	-12.7963
					CHANNELS 3  Xrotation Yrotation Zrotation
					End Site
					{
						OFFSET	0	-1.92715	-7.70859
					}
				}
			}
		}
	}
	JOINT RightUpLeg
	{
		OFFSET	9.64475	-3.54085	-0.712821
		CHANNELS 3  Xrotation Yrotation Zrotation
		JOINT RightLeg
		{
			OFFSET	2.14734	-42.0762	-0.657743
			CHANNELS 3  Xrotation Yrotation Zrotation
			JOINT RightFoot
			{
				OFFSET	2.09898	-38.6909	3.32741
				CHANNELS 3  Xrotation Yrotation Zrotation
				JOINT RightToeBase
				{
					OFFSET	0	-4.81787	-12.7963
					CHANNELS 3  Xrotation Yrotation Zrotation
					End Site
					{
						OFFSET	0	-1.92715	-7.70859
					}
				}
			}
		}
	}
}
MOTION
Frames: 16
Frame Time: 0.020408
 -148.113 89.5329 182.989 171.767 -163.37 175.061 180 -179.985 179.841 6.48154 -0.0291359 -0.26566 6.43946 -0.0874076 -0.26566 4.19566 -0.014568 -0.159396 2.4532 -0.00227423 -0.0530833 1.25415 8.93906 -2.96965 0.264155 18.2811 0.499274 179.922 -169.772 179.838 168.963 -148.674 -101.717 32.6199 -29.2114 15.4099 -0 14.896 7.34249 178.984 179.374 -178.029 153.66 104.978 122.229 175.887 163.213 -177.016 -0 6.31396 -5.01562 15.0539 -25.6118 -5.53201 171.172 166.539 179.694 0.25669 -0.0517804 11.6653 179.746 180 -180 11.9607 -9.3968 5.65577 159.343 -161.718 -179.002 16.0843 0.296215 -9.33762 178.39 180 -180
 -148.044 89.525 182.892 171.614 -163.502 175.037 180 -179.994 179.834 6.55121 -0.0115715 -0.275887 6.51115 -0.0347144 -0.275887 4.24767 -0.00578578 -0.165532 2.46335 -0.00237154 -0.0551264 1.22342 9.07809 -2.74929 0.252378 18.2822 0.566862 0.0467872 -9.90599 0.0969158 168.807 -149.049 -101.631 32.2147 -29.1008 15.1008 -0 14.6538 7.63823 178.911 179.628 -177.892 153.153 104.853 122.328 175.584 163.742 -176.934 -0 5.74907 -5.47897 15.1506 -25.6375 -5.64507 171.187 166.566 179.859 0.301121 -0.111546 11.5864 179.746 180 -180 12.0207 -9.32978 5.60484 159.247 -161.542 -179.058 16.1971 0.267713 -9.35064 178.395 180 -180
 -147.978 89.5064 182.821 171.496 -163.447 174.971 180 -179.995 179.841 6.60328 -0.0107659 -0.264605 6.5731 -0.0322977 -0.264605 4.31196 -0.00538298 -0.158763 2.41168 -0.00222688 -0.0528742 1.00917 8.96585 -2.54243 0.189645 17.8894 0.608114 0.157389 -9.63078 0.325522 168.558 -149.5 -101.89 31.7752 -29.0404 14.9404 -0 14.3662 7.92543 178.929 179.983 -177.934 152.735 104.693 122.793 175.297 163.701 -176.911 -0 5.25273 -5.8293 15.1331 -25.6984 -5.65982 171.304 166.531 179.763 0.31701 -0.0448642 11.6192 179.747 180 -180 12.1132 -9.0532 5.66306 159.055 -161.41 -179.269 16.3262 0.246643 -9.27513 178.392 180 -180
 -148.002 89.4896 182.871 171.324 -163.335 174.929 180 -180 179.841 6.65087 -0.00097147 -0.264806 6.6334 -0.00291441 -0.264806 4.38152 -0.000485738 -0.158884 2.33923 -0.00216166 -0.0529171 0.718096 8.41336 -3.00912 0.109868 17.4706 0.450103 0.252784 -9.71845 0.523086 168.274 -149.642 -102.069 31.4881 -29.1352 14.8136 -0 14.0778 8.25267 178.952 -179.503 -177.989 152.425 104.63 123.283 175 163.522 -176.872 -0 4.77265 -5.98186 15.1952 -25.52 -5.75149 171.46 166.549 179.692 0.245316 -0.00260989 11.6871 179.745 180 -180 12.3492 -8.76719 5.62872 158.92 -161.325 -179.315 16.3473 0.249202 -9.25427 178.389 180 -180
 -147.985 89.4632 182.859 171.235 -163.33 174.87 180 -179.999 179.845 6.69095 -0.00196381 -0.258474 6.69394 -0.00589142 -0.258474 4.46967 -0.000981909 -0.155085 2.20923 -0.00199278 -0.0516565 0.279 8.08729 -3.08091 179.981 162.983 -179.586 0.338591 -9.70288 0.700594 168.001 -149.92 -102.251 31.1301 -29.2844 14.5657 -0 13.8509 8.43022 178.92 -179.035 -177.935 152.214 104.585 123.733 174.727 162.776 -176.742 -0 4.40182 -6.0887 15.3509 -25.4743 -5.73791 171.429 166.607 179.679 0.227898 0.00235527 11.7363 179.747 180 -180 12.4454 -8.4622 5.57407 158.815 -161.236 -179.231 16.4381 0.166435 -9.26283 178.387 180 -180
 -147.857 89.4062 182.851 171.163 -163.275 174.791 1.29198e-05 0.0050654 -0.146139 6.72856 0.0101307 -0.243564 6.75267 0.0303922 -0.243564 4.55776 0.0050654 -0.146139 2.07466 -0.00176349 -0.0486809 179.841 172.102 176.834 179.849 163.195 -179.607 0.445607 -9.96095 0.923364 167.758 -150.135 -102.567 30.7545 -29.3105 14.4037 -0 13.6121 8.65782 178.842 -178.734 -177.793 151.786 104.543 124.072 174.511 162.192 -176.615 -0 4.03341 -6.1322 15.3208 -25.6253 -5.90371 171.524 166.584 179.763 0.211358 0.0721819 11.7811 179.746 180 -180 12.697 -8.0333 5.66269 158.293 -161.078 -179.373 16.6758 0.132684 -9.28358 178.388 180 -180
 -147.775 89.3617 182.884 171.088 -163.367 174.787 3.03719e-05 0.0109419 -0.159038 6.76126 0.0218836 -0.265064 6.80636 0.0656509 -0.265064 4.64217 0.0109419 -0.159038 1.93942 -0.0017941 -0.0529824 179.408 172.274 176.68 179.719 163.313 -179.64 0.578434 -10.4266 1.20167 167.512 -150.276 -102.864 30.4408 -29.26 14.1836 -0 13.365 9.00249 178.847 -178.618 -177.805 151.331 104.487 124.499 174.327 161.814 -176.529 -0 3.51096 -6.12547 15.4401 -25.6271 -6.08775 171.535 166.644 179.914 0.14142 0.0310767 11.7992 179.746 180 -180 12.7572 -7.50231 5.48853 158.087 -160.734 -179.357 16.836 0.00468748 -9.27798 178.389 180 -180
 -147.611 89.3192 182.916 170.961 -163.163 174.728 2.27745e-05 0.00897987 -0.145311 6.78437 0.0179596 -0.242186 6.85221 0.0538789 -0.242186 4.72594 0.00897987 -0.145311 1.78764 -0.00151101 -0.0484135 178.97 171.922 177.025 179.575 163.038 -179.494 0.581971 -11.3503 1.21481 167.034 -150.263 -102.96 30.269 -29.3812 14.0243 -0 12.8783 9.42896 178.981 -178.663 -178.06 151.047 104.465 124.549 174.19 161.73 -176.414 -0 3.0005 -5.90015 15.5099 -25.4377 -6.29266 171.494 166.642 179.942 0.139294 0.0477235 11.9028 179.747 180 -180 12.9447 -7.0531 5.33137 157.839 -160.681 -179.335 17.0111 -0.0105445 -9.22367 178.389 180 -180
 -147.507 89.3076 182.926 170.855 -163.275 174.763 3.63692e-05 0.0140768 -0.14803 6.8254 0.0281535 -0.246717 6.91902 0.0844605 -0.246717 4.83035 0.0140768 -0.14803 1.62146 -0.00139622 -0.0493236 178.461 171.781 177.02 179.413 162.764 -179.447 0.606368 -11.9954 1.26977 166.436 -150.289 -103.352 30.2549 -29.8257 14.2299 -0 12.2552 10.062 179.072 -178.897 -178.229 150.866 104.428 124.511 174.064 161.532 -176.349 -0 2.5706 -5.65878 15.7215 -25.2214 -6.45242 171.406 166.694 -179.949 0.0573891 -0.00909221 11.9291 179.747 180 -180 12.7643 -6.70048 5.06521 158.136 -160.687 -179.286 17.0796 -0.0452379 -9.05328 178.39 180 -180
 -147.479 89.3072 182.869 170.706 -163.02 174.717 4.34261e-05 0.0146991 -0.16927 6.87235 0.029398 -0.282117 6.98254 0.0881941 -0.282118 4.91124 0.0146991 -0.16927 1.52137 -0.00149803 -0.0564036 178.139 171.6 177.095 179.309 162.507 -179.386 0.599142 -12.5036 1.25765 165.986 -150.313 -103.742 30.3674 -30.346 14.6059 -0 11.4561 10.6712 179.141 -179.429 -178.352 150.365 104.355 124.966 173.954 161.315 -176.33 -0 2.35365 -5.56065 15.6698 -25.0418 -6.56485 171.537 166.617 -179.985 0.0596649 0.0624899 11.9092 179.75 180 -180 12.8148 -6.16163 5.05676 158.155 -160.771 -179.409 17.0754 -0.0850452 -8.95496 178.395 180 -180
 -147.543 89.3268 182.787 170.662 -163.201 174.703 7.245e-05 0.0216307 -0.191906 6.9139 0.0432609 -0.319844 7.03087 0.129783 -0.319845 4.95865 0.0216307 -0.191906 1.4891 -0.00166234 -0.0639472 178.002 171.697 176.856 179.267 162.434 -179.442 0.672585 -12.955 1.41477 165.702 -150.32 -104.137 30.4438 -30.5568 14.7736 -0 10.8314 11.2545 178.982 -179.742 -178.042 149.63 104.328 125.648 173.893 160.515 -176.18 -0 2.53532 -5.47312 15.8949 -24.9373 -6.36686 171.474 166.678 179.92 0.00185653 0.0175589 11.8836 179.755 180 -180 12.5735 -5.81609 4.97341 158.48 -160.822 -179.36 17.0417 -0.232391 -8.84886 178.4 180 -180
 -147.698 89.3509 182.786 170.568 -163.09 174.675 9.29492e-05 0.0250094 -0.212943 6.95912 0.0500181 -0.354905 7.07946 0.150054 -0.354906 4.99846 0.0250094 -0.212943 1.48158 -0.00183526 -0.0709573 177.927 171.832 176.759 179.247 162.572 -179.478 0.588566 -12.5784 1.23588 165.516 -150.503 -104.637 30.9045 -31.4625 15.4761 -0 10.209 11.7241 178.899 -179.619 -177.884 149.371 104.494 126.548 173.807 159.258 -176.047 -0 3.04973 -5.50098 15.9089 -24.7966 -6.35688 171.493 166.529 179.935 179.997 179.906 -168.157 179.758 180 -180 12.5165 -5.09235 4.95453 158.694 -160.909 -179.398 16.9256 -0.307214 -8.74771 178.406 180 -180
 -147.789 89.3744 182.651 170.588 -162.865 174.698 9.83688e-05 0.0237376 -0.237433 7.00015 0.0474744 -0.395722 7.13336 0.142423 -0.395723 5.06431 0.0237376 -0.237433 1.40539 -0.00194111 -0.0791206 177.639 172.246 176.515 179.169 163.046 -179.575 0.260187 -12.2443 0.545451 165.511 -150.379 -105.317 31.9121 -32.9159 16.8754 -0 9.88126 12.2422 178.702 -178.934 -177.52 149.517 104.769 127.243 173.761 157.088 -175.824 -0 3.79792 -5.41263 15.9914 -24.5043 -6.21734 171.166 166.406 179.832 0.193016 0.0508886 11.8332 179.761 180 -180 12.1639 -4.61099 4.90791 159.141 -161.057 -179.38 16.7917 -0.343799 -8.68588 178.411 180 -180
 -147.709 89.3752 182.294 170.705 -162.434 174.751 0.000102756 0.0223272 -0.263689 7.03901 0.0446536 -0.439481 7.17371 0.133961 -0.439482 5.0946 0.0223272 -0.263689 1.40809 -0.00215991 -0.0878697 177.596 172.44 176.419 179.16 163.293 -179.623 0.10911 -11.6436 0.22807 165.424 -150.52 -105.831 32.5876 -33.5733 17.5241 -0 9.75098 12.8075 178.409 -177.991 -176.988 150.109 105.031 127.301 173.674 154.175 -175.497 -0 4.66232 -5.34349 15.8877 -24.3048 -6.1254 170.426 166.074 179.751 0.792847 0.0455629 11.8735 179.765 180 -180 11.6823 -4.15907 4.99614 159.392 -161.222 -179.54 16.7866 -0.299985 -8.67169 178.42 180 -180
 -147.747 89.3972 182.199 170.616 -162.162 174.763 8.22294e-05 0.0156893 -0.300291 7.11557 0.0313778 -0.500486 7.26833 0.0941334 -0.500486 5.20025 0.0156893 -0.300291 1.30627 -0.0022819 -0.100071 177.22 172.564 176.384 179.047 163.471 -179.629 0.11489 -11.2173 0.239642 165.879 -150.913 -107.189 33.0541 -33.8315 17.9881 -0 9.6212 13.2164 178.135 -177.172 -176.497 150.084 105.355 128.033 173.544 151.819 -175.255 -0 5.37731 -5.29248 16.0694 -24.0156 -6.04023 169.922 165.842 179.687 1.08736 0.0209244 11.8738 179.767 180 -180 11.5127 -3.98869 4.99788 159.733 -161.432 -179.649 16.6857 -0.241849 -8.59242 178.423 180 -180
 -147.852 89.4172 182.025 170.67 -161.86 174.86 4.31282e-05 0.00719124 -0.343618 7.17895 0.014382 -0.572696 7.34761 0.043146 -0.572696 5.29104 0.00719124 -0.343618 1.21431 -0.00242733 -0.114513 176.893 172.569 176.429 178.946 163.517 -179.604 0.404698 -10.2952 0.84011 166.59 -151.855 -108.887 33.2208 -33.4272 17.8972 -0 9.49998 13.4123 177.841 -176.489 -175.971 149.642 105.538 129.31 173.283 149.206 -174.871 -0 5.87147 -5.39971 16.0456 -23.782 -6.00466 169.472 165.651 179.684 1.41884 0.0290027 11.8195 179.769 180 -180 11.28 -3.90672 5.05944 159.994 -161.667 -179.763 16.5479 -0.129066 -8.58773 178.41 180 -180
